# xmcd
# 
# Track frame offsets:
#     150
#     20337
#     42935
#     63985
#     81255
#     98200
#     116370
#     134767
#     153262
#     172530
#     190917
#     208760
#     227027
#     238900
# 
# Disc length: 3436
# 
# Revision: 2
# Processed by: cddbd v1.5.2PL0 Copyright (c) Steve Scherf et al.
# Submitted via: BonkEnc v1.0
# 
DISCID=b50d6a0e
DTITLE=Zezé di Camargo and Luciano - Dois corações e uma história · Vol. 4
DYEAR=2004
DGENRE=Brega
TTITLE0=Cada volta é um recomeço
TTITLE1=Pra não pensar em você
TTITLE2=Felicidade, que saudade de você
TTITLE3=Imperfeito
TTITLE4=Toma juízo
TTITLE5=É minha vida
TTITLE6=Volta pro meu coração
TTITLE7=Quando a cabeça não pensa
TTITLE8=Serafim e seus filhos
TTITLE9=Dois corações e uma história
TTITLE10=Doce maldade
TTITLE11=Pior é te perder
TTITLE12=O futuro é uma incerteza
TTITLE13=Fim de festa
EXTD=Sony Music Columbia 5099751554721
EXTT0=
EXTT1=
EXTT2=
EXTT3=
EXTT4=
EXTT5=
EXTT6=
EXTT7=
EXTT8=
EXTT9=
EXTT10=
EXTT11=
EXTT12=
EXTT13=
PLAYORDER=
